<?xml version="1.0" encoding="utf-8"?>
<!-- Generator: Adobe Illustrator 25.2.1, SVG Export Plug-In . SVG Version: 6.00 Build 0)  -->
<svg version="1.1" xmlns="http://www.w3.org/2000/svg" xmlns:xlink="http://www.w3.org/1999/xlink" x="0px" y="0px"
	 viewBox="0 0 283.4645691 283.4645691" style="enable-background:new 0 0 283.4645691 283.4645691;" xml:space="preserve">
<style type="text/css">
	.st0{fill:#0081C6;}
	.st1{fill:#FFFFFF;}
</style>
<g id="Layer_2">
</g>
<g id="Layer_1">
	<rect class="st0" width="283.4645691" height="283.4645691"/>
	<g>
		<path class="st1" d="M218.9303741,100.4424133v75.6719055l-60.3148499-74.0435638
			c-0.7523041-0.9696426-1.8122253-1.6283417-3.2298889-1.6283417c-0.0267487,0-0.0534973-0.0033417-0.080246-0.0033417
			c-0.0301056,0-0.0568542,0.0033417-0.0836029,0.0033417c-2.2702942,0.0468292-4.1025696,1.8958206-4.1059113,4.1828308h-0.0033417
			v78.5941772h5.1056519V106.98246l60.7126923,74.6821976c0.6687317,0.8760223,1.6885376,1.4678345,2.8454132,1.5547638
			c0.100296,0.0066986,0.5048828,0,0.6085205,0c2.0462799,0,3.6478424-1.7888031,3.6478424-3.868515v-78.908493H218.9303741z"/>
		<path class="st1" d="M114.7711639,143.5471802c9.9805756,0,18.072052-8.0914612,18.072052-18.0720444
			s-8.0914764-18.0720444-18.072052-18.0720444H68.044632v22.067627h4.0323563v-18.0285797h42.6941757
			c7.743721,0,14.0396881,6.2892685,14.0396881,14.0329971c0,7.7403946-6.2959671,14.0396957-14.0396881,14.0396957H68.044632
			v36.6757202h55.0486984c10.0775528,0,18.2492599-8.1783905,18.2492599-18.2559357
			c0-5.2628021-2.2301636-10.0039978-5.7944336-13.334198c-0.9161377,0.993042-1.9024963,1.9225616-2.9490356,2.7751617
			c2.888855,2.60466,4.7111053,6.372879,4.7111053,10.5590363c0,7.8406982-6.3762054,14.2168884-14.2168961,14.2168884H72.0569305
			v-28.6043243H114.7711639z"/>
		<path class="st1" d="M64.9417877,104.1965866h49.829361c11.7292786,0,21.2718506,9.5492706,21.2718506,21.2785492
			s-9.542572,21.2685165-21.2718506,21.2685165H75.1865082v22.2782593l47.8666916,0.0167236h0.0401306
			c6.1354599,0,11.1073685-4.9685516,11.1073685-11.1040192c0-3.5141144-1.6383514-6.647049-4.1861572-8.6799469
			c-1.3040009,0.835907-2.6815643,1.5714874-4.1159439,2.1900482c2.5076828,1.0866699,4.2697372,3.5876617,4.2697372,6.4898987
			c0,3.901947-3.1730499,7.0749969-7.0750046,7.0749969h-0.0401306H79.2857361V150.776001h35.4720459
			c13.9728088,0,25.3142395-11.3280487,25.3142395-25.3008652s-11.3280487-25.3008728-25.3008728-25.3008728H60.8492393v29.2964554
			h4.0925484V104.1965866z"/>
		<path class="st1" d="M139.7126007,138.740448c-0.6453247,1.2103729-1.3775635,2.3672485-2.1867218,3.4639587
			c4.2530365,3.9086304,6.9245758,9.5124664,6.9245758,15.7315369c0,11.7760773-9.579361,21.3587799-21.3554535,21.3587799
			l-58.1649094-0.0033417v-42.9382477h49.8427277c6.0050735,0,10.8766785-4.8715973,10.8766785-10.8800125
			c0-6.0050735-4.8716049-10.8766632-10.8766785-10.8766632H75.2316589v14.8755875h4.0724792v-10.8432388h35.4686813
			c3.77491,0,6.8443146,3.0694046,6.8443146,6.8443146c0,3.7782516-3.0694046,6.8476486-6.8443146,6.8476486H60.9010735v50.9661865
			l62.1939278,0.0033417c14.0229797,0,25.3878021-11.3313904,25.3878021-25.3543549
			C148.4828033,150.269104,145.0857239,143.3947144,139.7126007,138.740448"/>
	</g>
</g>
</svg>
